# xmcd
#
# Track frame offsets: 
#        150
#        12358
#        26502
#        39041
#        50045
#        61693
#        74742
#        84031
#        96261
#        111367
#
# Disc length: 1649 seconds
#
# Revision: 0
# Processed by: cddbd v1.5.2PL0 Copyright (c) Steve Scherf et al.
# Submitted via: ExactAudioCopy v1.0b1
#
DISCID=79066f0a
DTITLE=Ernest Tubb - Ernest Tubb Collection (3 of 3)
DYEAR=1987
DGENRE=Country
TTITLE0=There's A Little Bit Of Everything In Texas
TTITLE1=Tomorrow Never Comes
TTITLE2=Sweet Thang
TTITLE3=I'll Step Aside
TTITLE4=(When You Feel Like You're In Love) Don't Just Stand There
TTITLE5=Driftwood On The River
TTITLE6=Have You Ever Been Lonely (Have You Ever Been Blue)
TTITLE7=Yesterday's Winner Is A Loser Today
TTITLE8=I'm With A Crowd But So Alone
TTITLE9=Drivin' Nails In My Coffin
EXTD=
EXTT0=
EXTT1=
EXTT2=
EXTT3=
EXTT4=
EXTT5=
EXTT6=
EXTT7=
EXTT8=
EXTT9=
PLAYORDER=
